<?xml version="1.0" encoding="utf-8"?>
<!-- Generator: Adobe Illustrator 23.0.1, SVG Export Plug-In . SVG Version: 6.00 Build 0)  -->
<svg version="1.1" id="Layer_1" xmlns="http://www.w3.org/2000/svg" xmlns:xlink="http://www.w3.org/1999/xlink" x="0px" y="0px"
	 viewBox="0 0 640 480" style="enable-background:new 0 0 640 480;" xml:space="preserve">
<style type="text/css">
	.st0{fill:none;}
	.st1{fill:#051935;}
</style>
<g>
	<path class="st0" d="M392.86,198.92c2.18-1.83,3.27-4.27,3.27-7.32c0-2.23-0.54-4.21-1.62-5.92c-1.08-1.71-2.61-3.05-4.59-4.02
		c-1.99-0.97-4.35-1.46-7.08-1.46h-14.32v21.46h13.92C387.2,201.66,390.68,200.75,392.86,198.92z"/>
	<path class="st0" d="M232.68,251.57c-5.1-2.81-11.43-4.22-18.99-4.22h-9.1c-4.48,0-8.12,3.63-8.12,8.12v60.37
		c0,4.48,3.63,8.12,8.12,8.12h8.5c7.77,0,14.25-1.42,19.45-4.28c5.19-2.85,9.1-7.12,11.71-12.8c2.62-5.68,3.92-12.79,3.92-21.33
		c0-8.54-1.31-15.63-3.92-21.28C241.64,258.62,237.78,254.38,232.68,251.57z"/>
	<path class="st0" d="M387.43,167.4c1.83-0.83,3.27-2,4.34-3.53c1.06-1.52,1.6-3.35,1.6-5.48c0-2.92-1.03-5.27-3.1-7.06
		c-2.06-1.79-4.99-2.68-8.78-2.68h-12.98v20h12.66C383.52,168.65,385.61,168.23,387.43,167.4z"/>
	<path class="st0" d="M451.78,250.97c-4.65-3-10.01-4.49-16.07-4.49c-6.07,0-11.42,1.5-16.07,4.49c-4.65,3-8.29,7.41-10.92,13.24
		c-2.63,5.83-3.95,12.98-3.95,21.44c0,8.46,1.32,15.61,3.95,21.44c2.63,5.83,6.27,10.24,10.92,13.24c4.65,3,10.01,4.49,16.07,4.49
		c6.06,0,11.42-1.5,16.07-4.49c4.65-3,8.29-7.41,10.92-13.24s3.95-12.97,3.95-21.44c0-8.46-1.32-15.61-3.95-21.44
		C460.07,258.38,456.43,253.97,451.78,250.97z"/>
	<polygon class="st0" points="325.54,252.74 310.47,297.69 341.52,297.69 326.41,252.74 	"/>
	<path class="st1" d="M266.42,134.84h-6.09c-2.75,0-5.14,1.89-5.78,4.56l-12.29,51.68h-0.71l-13.55-51.81
		c-0.68-2.61-3.04-4.43-5.74-4.43h-6.81c-2.7,0-5.06,1.82-5.74,4.43l-13.59,51.7h-0.67l-12.28-51.57c-0.64-2.67-3.03-4.56-5.78-4.56
		h-6.09c-3.95,0-6.79,3.78-5.71,7.57l19.72,68.9c0.73,2.55,3.06,4.3,5.71,4.3h7.71c2.64,0,4.96-1.74,5.7-4.28l14.1-48.53h0.63
		l14.14,48.54c0.74,2.53,3.06,4.28,5.7,4.28h7.71c2.65,0,4.98-1.76,5.71-4.3l19.72-68.9C273.22,138.62,270.37,134.84,266.42,134.84z
		"/>
	<path class="st1" d="M289.34,215.62h42.71c3.28,0,5.94-2.66,5.94-5.94v-2.21c0-3.28-2.66-5.94-5.94-5.94h-25.63
		c-3.28,0-5.94-2.66-5.94-5.94v-13.35h28.61c3.28,0,5.94-2.66,5.94-5.94v-2.21c0-3.28-2.66-5.94-5.94-5.94h-22.68
		c-3.28,0-5.94-2.66-5.94-5.94v-13.31h31.41c3.28,0,5.94-2.66,5.94-5.94v-2.21c0-3.28-2.66-5.94-5.94-5.94h-42.56
		c-3.28,0-5.94,2.66-5.94,5.94v68.9C283.41,212.96,286.06,215.62,289.34,215.62z"/>
	<path class="st1" d="M357.38,215.62h28.58c6.05,0,11.14-0.97,15.26-2.92c4.13-1.95,7.25-4.6,9.37-7.95
		c2.12-3.35,3.18-7.17,3.18-11.46c0-3.97-0.84-7.4-2.52-10.27c-1.68-2.88-3.87-5.12-6.57-6.72c-2.7-1.6-5.58-2.47-8.66-2.6v-0.79
		c2.81-0.63,5.32-1.7,7.51-3.21c2.2-1.51,3.92-3.46,5.19-5.84c1.26-2.38,1.89-5.15,1.89-8.3c0-4.05-1-7.63-3-10.75
		c-2-3.12-4.98-5.55-8.95-7.32c-3.97-1.76-8.93-2.64-14.87-2.64h-26.41c-3.28,0-5.94,2.66-5.94,5.94v68.9
		C351.44,212.96,354.1,215.62,357.38,215.62z M368.52,148.65h12.98c3.79,0,6.71,0.89,8.78,2.68c2.06,1.79,3.1,4.14,3.1,7.06
		c0,2.13-0.53,3.96-1.6,5.48c-1.06,1.53-2.51,2.7-4.34,3.53s-3.91,1.24-6.25,1.24h-12.66V148.65z M368.52,180.2h14.32
		c2.73,0,5.09,0.49,7.08,1.46c1.99,0.97,3.52,2.31,4.59,4.02c1.08,1.71,1.62,3.68,1.62,5.92c0,3.05-1.09,5.49-3.27,7.32
		c-2.18,1.83-5.65,2.74-10.41,2.74h-13.92V180.2z"/>
	<path class="st1" d="M426.72,206.49c-2.52,3.95,0.32,9.13,5.01,9.13h0.07c2.05,0,3.96-1.06,5.04-2.8l17.66-28.36h0.63l17.66,28.36
		c1.08,1.74,2.99,2.8,5.04,2.8h0.17c4.67,0,7.51-5.14,5.03-9.09l-17.65-28.15c-1.21-1.92-1.21-4.37-0.01-6.29l17.55-28.16
		c2.46-3.95-0.38-9.08-5.04-9.08h-0.1c-2.07,0-3.99,1.08-5.06,2.84l-17.59,28.75h-0.63l-17.59-28.75c-1.08-1.76-3-2.84-5.06-2.84
		c-4.68,0-7.52,5.16-5.02,9.12l17.8,28.09c1.23,1.95,1.23,4.43-0.01,6.37L426.72,206.49z"/>
	<path class="st1" d="M243.41,236.53c-7.97-4.45-17.5-6.67-28.58-6.67h-30.46c-4.48,0-8.12,3.63-8.12,8.12v95.35
		c0,4.48,3.63,8.12,8.12,8.12h29.69c11.33,0,21.04-2.23,29.12-6.7c8.08-4.47,14.28-10.88,18.58-19.23
		c4.3-8.35,6.46-18.34,6.46-29.97c0-11.59-2.14-21.54-6.43-29.86C257.51,247.37,251.38,240.98,243.41,236.53z M244.25,306.87
		c-2.62,5.69-6.52,9.95-11.71,12.8c-5.2,2.85-11.68,4.28-19.45,4.28h-8.5c-4.48,0-8.12-3.63-8.12-8.12v-60.37
		c0-4.48,3.63-8.12,8.12-8.12h9.1c7.55,0,13.88,1.41,18.99,4.22c5.1,2.81,8.96,7.05,11.58,12.7c2.62,5.65,3.92,12.74,3.92,21.28
		C248.18,294.08,246.87,301.19,244.25,306.87z"/>
	<path class="st1" d="M340.37,235.27c-1.14-3.25-4.21-5.42-7.66-5.42h-13.46c-3.44,0-6.51,2.17-7.66,5.42l-33.57,95.35
		c-1.86,5.28,2.06,10.81,7.66,10.81h4.27c3.49,0,6.59-2.23,7.7-5.54l7.37-21.98h41.95l7.39,21.98c1.11,3.31,4.21,5.53,7.69,5.53
		h4.27c5.6,0,9.52-5.54,7.66-10.82L340.37,235.27z M310.47,297.69l15.07-44.95h0.87l15.1,44.95H310.47z"/>
	<path class="st1" d="M480.25,254.78c-4.49-8.55-10.59-15.1-18.31-19.64c-7.72-4.54-16.46-6.81-26.23-6.81
		c-9.77,0-18.52,2.27-26.23,6.81s-13.82,11.09-18.31,19.64c-4.49,8.55-6.73,18.84-6.73,30.87c0,11.99,2.24,22.26,6.73,30.81
		c4.49,8.55,10.59,15.11,18.31,19.67c7.72,4.56,16.46,6.84,26.23,6.84c9.77,0,18.51-2.27,26.23-6.81
		c7.72-4.54,13.82-11.09,18.31-19.64c4.49-8.55,6.73-18.84,6.73-30.86S484.73,263.34,480.25,254.78z M462.7,307.09
		c-2.63,5.83-6.27,10.24-10.92,13.24c-4.65,3-10.01,4.49-16.07,4.49c-6.07,0-11.42-1.5-16.07-4.49c-4.65-3-8.29-7.41-10.92-13.24
		c-2.63-5.83-3.95-12.97-3.95-21.44c0-8.46,1.32-15.61,3.95-21.44c2.63-5.83,6.27-10.24,10.92-13.24c4.65-3,10.01-4.49,16.07-4.49
		c6.06,0,11.42,1.5,16.07,4.49c4.65,3,8.29,7.41,10.92,13.24c2.63,5.83,3.95,12.98,3.95,21.44
		C466.65,294.11,465.34,301.26,462.7,307.09z"/>
</g>
</svg>
